<?xml version="1.0" standalone="no"?>
<!DOCTYPE svg PUBLIC "-//W3C//DTD SVG 20010904//EN"
 "http://www.w3.org/TR/2001/REC-SVG-20010904/DTD/svg10.dtd">
<svg version="1.0" xmlns="http://www.w3.org/2000/svg"
 width="500.000000pt" height="500.000000pt" viewBox="0 0 500.000000 500.000000"
 preserveAspectRatio="xMidYMid meet">

<g transform="translate(0.000000,500.000000) scale(0.100000,-0.100000)"
fill="#000000" stroke="none">
<path d="M0 2500 l0 -2500 2500 0 2500 0 0 2500 0 2500 -2500 0 -2500 0 0
-2500z m2480 585 l0 -105 -362 2 -363 3 -3 80 c-2 44 0 90 3 102 l5 23 360 0
360 0 0 -105z m565 74 c116 -43 215 -177 215 -290 l0 -40 -107 3 -106 3 -14
42 c-20 60 -62 87 -133 88 -67 0 -108 -19 -134 -64 -24 -41 -25 -110 -3 -145
28 -42 60 -56 153 -67 201 -22 329 -138 349 -315 23 -201 -113 -366 -322 -391
l-53 -6 0 112 c0 105 1 111 20 111 35 0 99 39 115 70 35 67 6 152 -63 184 -18
9 -68 21 -110 27 -152 20 -269 102 -312 217 -18 47 -21 72 -18 142 5 104 28
159 94 230 105 112 274 147 429 89z m-813 -794 l-2 -386 -113 3 -112 3 -3 383
-2 382 117 0 118 0 -3 -385z m495 -286 l1 -97 -81 -6 c-45 -3 -91 -4 -102 -2
-11 3 -26 5 -32 5 -10 1 -13 27 -13 95 0 66 4 96 13 100 6 2 57 4 112 3 l100
-2 2 -96z m-1057 -319 c0 -5 -11 -10 -25 -10 -25 0 -25 -1 -25 -80 0 -64 -3
-80 -15 -80 -12 0 -15 16 -15 80 l0 80 -30 0 c-16 0 -30 5 -30 10 0 6 30 10
70 10 40 0 70 -4 70 -10z m40 -30 l0 -40 45 0 45 0 0 40 c0 29 4 40 15 40 12
0 15 -17 15 -90 0 -73 -3 -90 -15 -90 -11 0 -15 11 -15 40 l0 40 -45 0 -45 0
0 -41 c0 -28 -4 -39 -12 -37 -7 3 -12 14 -11 26 0 12 1 51 2 87 1 36 5 65 11
65 6 0 10 -18 10 -40z m255 30 c4 -6 -12 -10 -39 -10 -44 0 -46 -1 -46 -30 0
-28 3 -30 35 -30 19 0 35 -4 35 -10 0 -5 -16 -10 -35 -10 -32 0 -35 -2 -35
-30 0 -28 2 -30 40 -30 22 0 40 -4 40 -10 0 -5 -25 -10 -55 -10 l-55 0 0 90 0
90 54 0 c30 0 58 -4 61 -10z m145 -80 c0 -53 -4 -90 -10 -90 -6 0 -10 37 -10
90 0 53 4 90 10 90 6 0 10 -37 10 -90z m145 73 c28 -28 36 -62 25 -104 -13
-47 -33 -59 -99 -59 l-51 0 0 83 c0 46 3 87 7 90 14 14 102 7 118 -10z m155 7
c0 -5 -18 -10 -40 -10 -38 0 -40 -2 -40 -30 0 -28 3 -30 35 -30 19 0 35 -4 35
-10 0 -5 -17 -10 -37 -10 -35 0 -38 -2 -38 -30 0 -29 2 -30 45 -30 l45 0 34
81 c18 44 38 78 44 76 5 -1 23 -38 40 -80 17 -42 34 -77 39 -77 4 0 8 36 8 80
0 47 4 80 10 80 6 0 10 -33 10 -80 l0 -80 45 0 c25 0 45 -4 45 -10 0 -6 -30
-10 -70 -10 -66 0 -71 2 -82 25 -10 22 -17 26 -47 23 -26 -2 -39 -9 -46 -25
-9 -21 -17 -23 -77 -23 l-68 0 0 90 0 90 55 0 c30 0 55 -4 55 -10z m440 -5
c16 -20 5 -32 -14 -16 -20 17 -60 10 -64 -12 -3 -12 9 -23 42 -37 39 -16 46
-23 46 -48 0 -37 -17 -52 -56 -52 -42 0 -64 9 -64 26 0 17 12 18 27 3 6 -6 23
-9 39 -7 46 5 38 36 -16 61 -49 24 -62 53 -35 81 21 20 79 21 95 1z m160 5 c0
-5 -13 -10 -30 -10 l-30 0 0 -80 c0 -64 -3 -80 -15 -80 -12 0 -15 16 -15 80 0
79 0 80 -25 80 -14 0 -25 5 -25 10 0 6 30 10 70 10 40 0 70 -4 70 -10z m145
-15 c35 -34 35 -96 0 -130 -35 -36 -96 -35 -124 1 -49 63 -11 154 64 154 25 0
44 -8 60 -25z m160 4 c16 -17 17 -24 7 -51 -6 -17 -9 -35 -6 -40 3 -5 9 -22
14 -38 7 -23 5 -30 -5 -30 -8 0 -18 15 -23 33 -7 28 -13 32 -45 35 -36 3 -37
3 -37 -32 0 -20 -4 -36 -9 -36 -14 0 -17 20 -13 103 l4 77 47 0 c36 0 53 -5
66 -21z m145 11 c0 -5 -18 -10 -40 -10 -38 0 -40 -2 -40 -30 0 -28 3 -30 35
-30 19 0 35 -4 35 -10 0 -5 -15 -10 -34 -10 -30 0 -34 -3 -38 -30 -4 -29 -4
-30 39 -30 24 0 43 -4 43 -10 0 -5 -25 -10 -55 -10 l-55 0 0 90 0 90 55 0 c30
0 55 -4 55 -10z m-1135 -260 c259 -5 629 -13 823 -16 l352 -7 6 -23 c3 -12 4
-33 2 -45 l-3 -24 -994 -3 c-726 -1 -997 1 -1007 9 -15 12 -20 110 -6 123 4 5
86 5 182 2 96 -4 387 -11 645 -16z"/>
<path d="M2160 1680 c0 -70 0 -70 28 -70 46 0 72 25 72 70 0 45 -26 70 -72 70
-28 0 -28 0 -28 -70z"/>
<path d="M2471 1690 c-10 -29 -9 -30 19 -30 27 0 28 1 17 30 -6 17 -14 30 -18
30 -4 0 -12 -13 -18 -30z"/>
<path d="M3055 1725 c-30 -30 -31 -54 -4 -89 33 -41 79 -34 98 17 11 29 6 52
-17 80 -21 24 -49 21 -77 -8z"/>
<path d="M3220 1716 c0 -33 3 -36 28 -36 38 0 54 13 50 41 -2 20 -10 25 -40
27 -37 3 -38 3 -38 -32z"/>
</g>
</svg>
